<svg width="193" height="200" viewBox="0 0 193 200" fill="none" xmlns="http://www.w3.org/2000/svg">
<g clip-path="url(#clip0_38_1312)">
<path d="M119.627 144.518C159.788 144.518 192.345 112.166 192.345 72.2588C192.345 32.3514 159.788 0 119.627 0C79.4669 0 46.9104 32.3514 46.9104 72.2588C46.9104 112.166 79.4669 144.518 119.627 144.518Z" fill="#0A3D21" fill-opacity="0.33"/>
<path d="M74.4054 200C115.498 200 148.811 194.152 148.811 186.938C148.811 179.724 115.498 173.876 74.4054 173.876C33.3124 173.876 0 179.724 0 186.938C0 194.152 33.3124 200 74.4054 200Z" fill="#0A3D21" fill-opacity="0.33"/>
<path d="M47.5544 78.7256C47.5544 78.7256 41.8374 94.7165 44.3783 100.398C46.9192 106.079 50.9423 111.549 50.9423 111.549C50.9423 111.549 49.4601 79.7776 47.5544 78.7256Z" fill="#FF8C42"/>
<path opacity="0.1" d="M47.5544 78.7256C47.5544 78.7256 41.8374 94.7165 44.3783 100.398C46.9192 106.079 50.9423 111.549 50.9423 111.549C50.9423 111.549 49.4601 79.7776 47.5544 78.7256Z" fill="#81C784"/>
<path d="M51.5775 115.757C51.5775 115.757 51.154 119.755 50.9422 119.965C50.7305 120.176 51.154 120.597 50.9422 121.228C50.7305 121.859 50.5188 122.701 50.9422 122.911C51.3657 123.121 48.6131 141.637 48.6131 141.637C48.6131 141.637 41.8374 150.474 44.59 164.361L45.437 178.459C45.437 178.459 52.0009 178.879 52.0009 176.565C52.0009 176.565 51.5775 173.83 51.5775 172.567C51.5775 171.305 52.6362 171.305 52.0009 170.673C51.3657 170.042 51.3657 169.621 51.3657 169.621C51.3657 169.621 52.4244 168.78 52.2127 168.569C52.0009 168.359 54.1184 153.42 54.1184 153.42C54.1184 153.42 56.4475 151.106 56.4475 149.843V148.581C56.4475 148.581 57.5062 145.845 57.5062 145.635C57.5062 145.425 63.2232 132.59 63.2232 132.59L65.5524 141.848L68.0933 155.103C68.0933 155.103 69.3637 167.097 71.9046 171.726C71.9046 171.726 76.3512 186.875 76.3512 186.454C76.3512 186.033 83.7621 184.981 83.5504 183.088C83.3387 181.194 79.1038 154.683 79.1038 154.683L80.1626 115.336L51.5775 115.757Z" fill="#00211C"/>
<path d="M45.8605 177.406C45.8605 177.406 40.1435 188.558 43.9548 188.979C47.7661 189.399 49.2483 189.399 50.9423 187.716C51.8683 186.796 53.7437 185.561 55.2536 184.631C56.1483 184.089 56.871 183.307 57.3389 182.375C57.8068 181.443 58.001 180.399 57.8991 179.363C57.7875 178.333 57.4004 177.485 56.4476 177.406C53.9067 177.196 50.9423 174.881 50.9423 174.881L45.8605 177.406Z" fill="#00211C"/>
<path d="M77.4099 185.612C77.4099 185.612 71.6929 196.764 75.5042 197.185C79.3156 197.605 80.7978 197.606 82.4917 195.922C83.4178 195.002 85.2931 193.767 86.803 192.837C87.6977 192.295 88.4204 191.513 88.8883 190.581C89.3563 189.649 89.5504 188.605 89.4486 187.569C89.3369 186.539 88.9498 185.691 87.997 185.612C85.4561 185.402 82.4917 183.087 82.4917 183.087L77.4099 185.612Z" fill="#00211C"/>
<path d="M71.3676 60.4761C76.2834 60.4761 80.2684 56.5162 80.2684 51.6313C80.2684 46.7465 76.2834 42.7866 71.3676 42.7866C66.4518 42.7866 62.4668 46.7465 62.4668 51.6313C62.4668 56.5162 66.4518 60.4761 71.3676 60.4761Z" fill="#FFB8B8"/>
<path d="M65.6457 54.5376C65.6457 54.5376 59.2879 66.1621 58.7793 66.1621C58.2707 66.1621 70.2232 69.9527 70.2232 69.9527C70.2232 69.9527 73.5293 58.8336 74.0379 57.8228L65.6457 54.5376Z" fill="#FFB8B8"/>
<path d="M75.3983 67.2582C75.3983 67.2582 62.6939 60.3148 61.4234 60.5252C60.1529 60.7356 46.6015 72.5184 46.8132 77.3578C47.025 82.1971 48.7189 90.1926 48.7189 90.1926C48.7189 90.1926 49.3541 112.496 50.6246 112.706C51.895 112.917 50.4128 116.704 50.8363 116.704C51.2598 116.704 80.4801 116.704 80.6919 116.073C80.9036 115.441 75.3983 67.2582 75.3983 67.2582Z" fill="#FF8C42"/>
<path d="M82.4917 117.23C82.4917 117.23 86.5148 129.434 83.1269 129.013C79.739 128.592 78.2568 118.492 78.2568 118.492L82.4917 117.23Z" fill="#FFB8B8"/>
<path d="M71.693 66.522C71.693 66.522 63.8585 68.2053 65.129 78.7256C66.3994 89.246 68.7286 99.7663 68.7286 99.7663L76.563 116.809L77.41 119.965L83.127 118.493L78.8922 94.0853C78.8922 94.0853 77.41 67.9949 75.5043 67.1532C74.3026 66.6441 72.9959 66.4277 71.693 66.522Z" fill="#FF8C42"/>
<path opacity="0.1" d="M66.9287 99.4505L76.6689 116.704L68.4626 98.5234L66.9287 99.4505Z" fill="#81C784"/>
<path d="M80.229 49.027L80.2585 48.3511L81.6115 48.6858C81.597 48.4688 81.5353 48.2576 81.4306 48.0666C81.326 47.8756 81.1808 47.7095 81.0052 47.5797L82.4465 47.4996C81.2371 45.7919 79.6919 44.3454 77.9043 43.2475C76.1166 42.1497 74.1236 41.4233 72.0455 41.1122C68.928 40.6632 65.4568 41.313 63.319 43.6121C62.2821 44.7272 61.6306 46.1454 61.1671 47.5921C60.3135 50.2568 60.1396 53.4332 61.9195 55.5992C63.7285 57.8005 66.8884 58.2317 69.7353 58.5042C70.737 58.6 71.7868 58.6892 72.715 58.303C72.8183 57.245 72.682 56.1774 72.3161 55.1786C72.1638 54.8693 72.0909 54.5274 72.1042 54.1834C72.2307 53.3417 73.3605 53.1297 74.2091 53.2434C75.0578 53.3571 76.0783 53.5311 76.6359 52.8853C77.0201 52.4404 76.9974 51.7927 77.0483 51.2086C77.1868 49.6188 80.2145 49.3603 80.229 49.027Z" fill="#00211C"/>
<path d="M134.822 188.736C140.55 188.736 145.193 184.122 145.193 178.43C145.193 172.738 140.55 168.125 134.822 168.125C129.094 168.125 124.451 172.738 124.451 178.43C124.451 184.122 129.094 188.736 134.822 188.736Z" fill="#81C784"/>
<path d="M13.024 185.141C18.7517 185.141 23.3949 180.527 23.3949 174.835C23.3949 169.144 18.7517 164.53 13.024 164.53C7.2963 164.53 2.65308 169.144 2.65308 174.835C2.65308 180.527 7.2963 185.141 13.024 185.141Z" fill="#81C784"/>
<path d="M13.024 168.604C17.1532 168.604 20.5007 165.277 20.5007 161.174C20.5007 157.071 17.1532 153.745 13.024 153.745C8.89468 153.745 5.54724 157.071 5.54724 161.174C5.54724 165.277 8.89468 168.604 13.024 168.604Z" fill="#81C784"/>
<path d="M13.024 154.943C15.9544 154.943 18.33 152.583 18.33 149.671C18.33 146.759 15.9544 144.398 13.024 144.398C10.0935 144.398 7.7179 146.759 7.7179 149.671C7.7179 152.583 10.0935 154.943 13.024 154.943Z" fill="#81C784"/>
<path opacity="0.05" d="M119.627 107.312C139.11 107.312 154.903 91.6181 154.903 72.2588C154.903 52.8994 139.11 37.2056 119.627 37.2056C100.145 37.2056 84.3519 52.8994 84.3519 72.2588C84.3519 91.6181 100.145 107.312 119.627 107.312Z" fill="#81C784"/>
<path opacity="0.05" d="M119.627 121.149C146.8 121.149 168.827 99.2599 168.827 72.2587C168.827 45.2575 146.8 23.3687 119.627 23.3687C92.455 23.3687 70.4274 45.2575 70.4274 72.2587C70.4274 99.2599 92.455 121.149 119.627 121.149Z" fill="#81C784"/>
<path opacity="0.05" d="M119.627 131.911C152.781 131.911 179.658 105.204 179.658 72.2589C179.658 39.314 152.781 12.6069 119.627 12.6069C86.4736 12.6069 59.5972 39.314 59.5972 72.2589C59.5972 105.204 86.4736 131.911 119.627 131.911Z" fill="#81C784"/>
</g>
<defs>
<clipPath id="clip0_38_1312">
<rect width="192.344" height="200" fill="white"/>
</clipPath>
</defs>
</svg>
