<svg width="251" height="200" viewBox="0 0 251 200" fill="none" xmlns="http://www.w3.org/2000/svg">
<g clip-path="url(#clip0_38_1420)">
<path d="M211.43 191.492C212.417 191.553 212.963 190.326 212.215 189.61L212.141 189.315C212.151 189.291 212.16 189.268 212.17 189.244C212.759 187.838 214.382 187.173 215.791 187.755C220.244 189.596 215.542 193.828 215.896 196.691C216.02 197.679 219.891 197.733 219.672 198.703C221.73 194.203 222.812 189.289 222.811 184.347C222.81 183.106 222.742 181.864 222.602 180.626C222.488 179.613 222.33 178.606 222.126 177.609C221.021 172.217 218.632 167.082 215.187 162.793C213.532 161.889 214.541 160.474 213.707 158.779C213.407 158.168 210.734 158.154 210.622 157.484C210.742 157.499 212.47 155.704 211.899 154.817C211.524 154.233 211.641 153.49 212.123 152.99C212.17 152.942 212.215 152.89 212.256 152.834C213.681 150.9 215.646 151.237 216.673 153.864C218.864 154.969 218.886 156.803 217.542 158.568C216.687 159.69 216.57 161.208 215.82 162.41C215.897 162.509 215.978 162.605 216.055 162.703C217.471 164.519 218.697 166.47 219.73 168.521C219.437 166.242 219.867 163.496 220.601 161.726C221.442 159.695 223.025 157.986 224.411 156.229C226.067 154.13 229.437 155.083 229.73 157.739C229.732 157.765 229.735 157.79 229.738 157.816C229.533 157.932 229.332 158.055 229.136 158.185C228.017 158.925 228.405 160.659 229.73 160.863L229.761 160.867C229.687 161.605 227.067 163.931 226.882 164.65C228.654 171.492 227.328 172.395 221.878 172.51L221.592 172.917C222.108 174.402 222.524 175.923 222.836 177.463C223.13 178.893 223.334 180.339 223.449 181.79C223.592 183.621 223.58 185.462 223.426 187.29L223.435 187.226C223.827 185.212 224.92 183.331 226.507 182.027C228.871 180.083 232.211 179.367 234.762 177.805C235.99 177.052 237.564 178.023 237.35 179.447L237.34 179.515C236.96 179.67 236.589 179.849 236.231 180.05C236.026 180.166 235.825 180.289 235.628 180.419C234.51 181.159 234.898 182.894 236.224 183.097L236.254 183.101C236.275 183.104 236.294 183.107 236.316 183.111C235.664 184.658 229.461 186.841 228.325 188.08C227.22 194.056 227.763 193.878 222.677 192.139H222.674C222.119 194.561 221.308 196.927 220.265 199.182L211.648 199.185C211.617 199.089 211.589 198.99 211.562 198.894C212.358 198.944 213.161 198.897 213.946 198.752C213.306 197.967 212.667 197.177 212.027 196.393C212.012 196.377 211.999 196.362 211.987 196.346L211.977 196.334L211.09 193.414C211.16 192.766 211.275 192.124 211.43 191.492Z" fill="#81C784"/>
<path d="M120.374 199.115L44.128 199.141C40.2976 199.143 36.8665 197.163 34.9501 193.847C33.9918 192.188 33.5126 190.369 33.512 188.549C33.5113 186.73 33.9896 184.91 34.9465 183.251L73.0451 113.894C74.9594 110.576 78.3892 108.595 82.2196 108.593C86.05 108.592 89.4812 110.571 91.3978 113.888L129.549 183.227C130.505 184.881 130.983 186.698 130.983 188.516C130.983 190.335 130.505 192.155 129.548 193.814C127.634 197.132 124.204 199.114 120.374 199.115ZM34.4704 188.548C34.4703 190.204 42.8837 186.635 43.7554 188.144C45.4988 191.161 40.6429 198.186 44.1277 198.185C44.1277 198.185 126.978 196.354 128.72 193.336C129.59 191.827 130.025 190.171 130.025 188.516C130.024 186.86 129.588 185.205 128.716 183.696L90.5646 114.358C88.8261 111.349 85.7048 109.548 82.2199 109.55C78.7367 109.551 34.4705 186.891 34.4704 188.548Z" fill="#00897B"/>
<path d="M121.221 198.158C120.265 200.071 165.026 199.483 165.556 199.483C165.556 199.483 178.137 199.205 178.401 198.747C178.534 198.518 178.6 198.266 178.6 198.015C178.599 197.763 178.533 197.512 178.401 197.283L172.607 186.754C172.343 186.297 171.869 186.023 171.34 186.023C171.318 186.023 171.286 186.043 171.244 186.08C163.515 192.987 153.99 197.553 143.627 197.707C132.607 197.871 121.281 198.037 121.221 198.158Z" fill="#00897B"/>
<path d="M3.57908e-08 199.431C0.000110012 199.747 0.253635 200 0.569234 200L250.307 199.913C250.622 199.913 250.876 199.66 250.876 199.344C250.876 199.029 250.622 198.775 250.306 198.775L0.568842 198.862C0.253243 198.862 -0.000109941 199.115 3.57908e-08 199.431Z" fill="#F5F5F5"/>
<path d="M193.118 196.669L188.793 196.67L186.73 179.99L193.113 179.988L193.118 196.669Z" fill="#F8B9B6"/>
<path d="M178.3 196.576C178.166 196.803 178.095 197.535 178.095 197.799C178.095 198.61 178.753 199.266 179.563 199.266L192.957 199.262C193.51 199.261 193.958 198.813 193.958 198.26L193.958 197.702C193.958 197.702 194.62 196.026 193.255 193.961C193.255 193.961 191.56 195.579 189.026 193.046L188.278 191.693L182.872 195.65L179.875 196.02C179.219 196.101 178.637 196.008 178.3 196.576Z" fill="#00211C"/>
<path d="M176.535 182.402L172.438 183.788L165.141 168.647L171.188 166.601L176.535 182.402Z" fill="#F8B9B6"/>
<path d="M162.468 187.06C162.413 187.318 162.581 188.034 162.665 188.284C162.925 189.051 163.758 189.463 164.526 189.203L177.213 184.909C177.737 184.732 178.018 184.164 177.84 183.64L177.661 183.112C177.661 183.112 177.752 181.312 175.797 179.793C175.797 179.793 174.71 181.868 171.498 180.281L170.357 179.238L166.502 184.718L163.782 186.029C163.186 186.315 162.606 186.413 162.468 187.06Z" fill="#00211C"/>
<path d="M169.854 85.6337L161.466 113.415L151.563 138.404L167.241 174.091L173.054 171.505L166.098 138.722L180.686 116.477L187.493 185.921L193.307 185.596L201.192 101.773L202.316 83.5229L169.854 85.6337Z" fill="#00211C"/>
<path d="M195.189 24.0923L182.916 26.3576L181.949 31.849L174.521 35.4046L170.659 75.7817C170.659 75.7817 164.201 84.1821 169.37 86.7644L202.316 83.5229C202.316 83.5229 203.929 77.5506 202.314 76.9839C200.698 76.4173 200.693 62.1517 200.693 62.1517L208.112 32.809L197.129 28.9367L195.189 24.0923Z" fill="#FF8C42"/>
<path d="M187.95 23.9862C193.424 23.9862 197.861 19.5489 197.861 14.0751C197.861 8.60141 193.424 4.16406 187.95 4.16406C182.476 4.16406 178.039 8.60141 178.039 14.0751C178.039 19.5489 182.476 23.9862 187.95 23.9862Z" fill="#F8B9B6"/>
<path d="M194.513 15.546C193.722 15.979 194.473 18.0462 193.978 18.2249C193.407 18.4315 191.324 16.0602 191.298 13.4042C191.29 12.6003 191.475 12.2144 191.297 11.2613C191.065 10.0146 190.35 8.54412 189.689 8.58315C189.297 8.60629 188.915 9.1604 188.886 9.6549C188.846 10.3479 189.519 10.6207 189.422 10.9941C189.238 11.7051 186.411 12.196 185.404 10.9954C184.615 10.0542 185.22 8.40157 184.868 8.31695C184.608 8.25458 184.328 9.16445 183.261 10.1926C182.859 10.5799 182.261 11.156 181.922 10.9966C181.432 10.7663 181.788 9.14319 181.653 9.12167C181.542 9.10385 181.472 10.2447 180.851 11.2649C180.052 12.5755 178.405 13.5857 177.637 13.1411C177.166 12.8686 177.129 12.1101 177.1 11.5341C177.041 10.3204 175.277 7.52879 175.734 6.23048C176.662 3.58803 178.253 5.45071 178.973 4.56886C179.947 3.37504 180.822 4.0169 182.455 2.69258C184.05 1.39885 184.064 0.0985495 185.133 0.0129782C186.095 -0.0640819 186.437 0.962258 187.544 0.815745C188.481 0.691629 188.685 -0.104405 189.418 0.0114911C190.09 0.117595 190.134 0.818858 191.026 1.0824C191.595 1.25066 191.721 1.00713 192.365 1.08194C193.707 1.23761 194.608 2.45943 194.777 2.68831C195.427 3.57064 195.175 3.94272 195.849 4.83087C196.43 5.59679 197.718 5.27155 198.202 5.65408C199.785 6.90403 200.465 9.20918 200.478 11.8365C200.488 13.6741 200.248 14.6026 199.714 16.922C199.308 18.6833 197.427 20.9593 196.391 21.9742C196.112 22.2466 195.332 23.0104 194.784 22.7784C194.264 22.5585 194.248 21.5697 194.247 21.4392C194.245 20.9902 194.365 20.4346 195.318 19.028C196.32 17.5505 196.717 17.3819 196.657 16.8846C196.549 16.0057 195.144 15.2009 194.513 15.546Z" fill="#00211C"/>
<path d="M159.942 107.949C159.633 110.533 160.716 112.786 162.36 112.982C164.004 113.178 165.586 111.243 165.895 108.66C166.03 107.529 165.898 106.462 165.57 105.602L166.739 94.6396L161.583 94.2002L160.977 105.054C160.456 105.812 160.077 106.818 159.942 107.949Z" fill="#F8B9B6"/>
<path d="M174.763 35.1436C174.763 35.1436 172.091 35.1816 170.323 38.636C169.383 40.4716 164.354 74.798 164.354 74.798L159.722 102.918L167.613 102.958L173.761 76.3274L178.934 60.8825L174.763 35.1436Z" fill="#FF8C42"/>
<path d="M196.968 103.823C196.212 106.312 196.884 108.72 198.468 109.201C200.052 109.682 201.949 108.053 202.705 105.564C203.036 104.474 203.093 103.4 202.92 102.496L205.989 91.9073L200.989 90.5728L198.494 101.153C197.848 101.808 197.299 102.733 196.968 103.823Z" fill="#F8B9B6"/>
<path d="M202.46 33.2953C202.46 33.2953 206.335 30.3869 209.567 34.9079C212.798 39.4289 214.103 76.5741 214.103 76.5741L205.067 99.5106L198.283 97.2519L204.733 69.1482L193.421 47.8337L202.46 33.2953Z" fill="#FF8C42"/>
<path d="M104.468 183.82C123.746 183.82 139.374 168.192 139.374 148.914C139.374 129.636 123.746 114.008 104.468 114.008C85.1901 114.008 69.5624 129.636 69.5624 148.914C69.5624 168.192 85.1901 183.82 104.468 183.82Z" fill="#B3261E"/>
<path d="M104.474 170.311C106.244 170.311 107.679 168.876 107.679 167.106C107.679 165.336 106.244 163.901 104.474 163.901C102.704 163.901 101.269 165.336 101.269 167.106C101.269 168.876 102.704 170.311 104.474 170.311Z" fill="#F5F5F5"/>
<path d="M104.461 127.516C104.166 129.472 104.694 129.882 104.697 138.315C104.7 146.749 106.449 158.057 104.471 158.057C102.493 158.058 101.769 134.722 94.8999 132.656C86.8234 130.228 105.414 121.183 104.461 127.516Z" fill="#F5F5F5"/>
<path d="M57.6197 166.735L54.466 173.399C58.2785 170.665 64.2335 168.308 68.9722 167.046C64.5569 164.913 59.1541 161.474 55.9264 158.07L57.7402 165.11C36.4746 160.779 21.2035 144.465 21.197 125.777L20.4288 125.513C20.4356 145.033 35.4955 162.313 57.6197 166.735Z" fill="#00897B"/>
</g>
<defs>
<clipPath id="clip0_38_1420">
<rect width="250.876" height="200" fill="white"/>
</clipPath>
</defs>
</svg>
