<svg width="150" height="200" viewBox="0 0 150 200" fill="none" xmlns="http://www.w3.org/2000/svg">
<g clip-path="url(#clip0_391_2459)">
<path d="M95.3213 42.4862C95.3213 43.0307 95.2584 43.5885 95.1259 44.1463L89.5927 67.6158C88.808 70.9525 85.4536 73.0186 82.1092 72.2299L59.9338 65.3714L58.851 65.0382C57.5894 65.949 55.8279 66.3682 53.9868 66.0447C50.7682 65.4771 48.5397 62.8664 49.0099 60.2096C49.4802 57.556 52.4702 55.8629 55.6888 56.4273C57.5299 56.7507 59.0431 57.7441 59.9173 59.0281L59.9338 59.0313L59.9901 59.0412L79.2914 61.4209L80.9139 41.9086C81.2219 38.1791 84.3477 35.311 88.1026 35.311C92.1756 35.311 95.3213 38.628 95.3213 42.4862Z" fill="#F8C5B6"/>
<path d="M95.3212 42.4862C95.3212 43.0307 95.2583 43.5885 95.1259 44.1463L90.586 68.606C89.8014 71.9427 86.4469 74.0088 83.1025 73.22L60.9271 67.0745L61.9205 57.5032L78.8079 59.8135L80.9138 41.9086C81.2218 38.1791 84.3477 35.311 88.1026 35.311C92.1755 35.311 95.3212 38.628 95.3212 42.4862Z" fill="#00211C"/>
<path d="M0 199.752H11.7682H22.2285H22.649H31.8576H94.9205H109.927H150" stroke="#00211C" stroke-width="1.5" stroke-miterlimit="10"/>
<path d="M124.122 171.372L118.765 175.308L122.714 180.646L128.07 176.711L124.122 171.372Z" fill="#F8C5B6"/>
<path d="M130.748 182.239L119.362 190.605C118.389 191.32 117.247 191.816 116.059 192.041L113.216 192.577C112.629 192.688 112.019 192.45 111.665 191.97C111.248 191.407 111.26 190.63 111.693 190.08L115.14 185.704L119.678 176.379L119.704 176.403C120.36 177 121.356 177.899 121.43 177.943C122.832 178.252 123.908 178.079 124.629 177.427C125.887 176.291 125.633 174.062 125.631 174.039L125.629 174.022L125.643 174.013C125.986 173.812 126.316 173.767 126.625 173.879C127.28 174.118 127.622 174.975 127.67 175.106C128.31 175.195 129.973 177.095 130.106 177.249C131.063 177.422 131.722 177.78 132.064 178.313C132.363 178.779 132.421 179.374 132.237 180.08C132.014 180.93 131.486 181.697 130.748 182.239Z" fill="#00211C"/>
<path d="M78.1896 186.95H71.5352V193.583H78.1896V186.95Z" fill="#F8C5B6"/>
<path d="M77.0539 199.616H62.9088C61.6998 199.616 60.4848 199.34 59.3952 198.818L56.7875 197.569C56.2483 197.311 55.8999 196.758 55.8999 196.162C55.8999 195.463 56.3721 194.844 57.0483 194.658L62.4281 193.174L71.6317 188.352L71.6386 188.387C71.8107 189.256 72.0774 190.568 72.1113 190.648C73.0551 191.726 74.0247 192.222 74.9931 192.124C76.6822 191.954 77.8051 190.01 77.8163 189.99L77.8248 189.975L77.8421 189.977C78.2376 190.017 78.5302 190.176 78.7117 190.449C79.097 191.028 78.8619 191.92 78.8233 192.055C79.2847 192.505 79.4918 195.018 79.5078 195.221C80.1751 195.926 80.4921 196.603 80.4501 197.235C80.4134 197.787 80.1062 198.3 79.537 198.759C78.8522 199.312 77.9703 199.616 77.0539 199.616Z" fill="#00211C"/>
<path d="M105.342 83.2671H73.449L68.3652 188.724H79.5967L86.8534 140.789L115.972 179.137L126.603 169.55L105.342 140.789V83.2671Z" fill="#00211C"/>
<path d="M97.1309 13.9617C97.1309 13.9617 105.918 13.9428 102.635 5.50378C99.3528 -2.93523 93.2405 0.843371 93.2405 0.843371C93.2405 0.843371 90.665 2.19934 91.196 5.22467" fill="#00211C"/>
<path d="M98.0104 18.0098C98.0104 11.5396 92.748 6.29443 86.2566 6.29443C79.7652 6.29443 74.5028 11.5396 74.5028 18.0098C74.5028 23.2572 77.9642 27.6983 82.7351 29.1897L85.0074 44.1573L96.5909 34.536C96.5909 34.536 94.0885 31.3591 92.7465 27.7767C95.9183 25.6787 98.0104 22.0884 98.0104 18.0098Z" fill="#F8C5B6"/>
<path d="M91.9037 27.9064C91.9037 27.9064 93.4645 21.9417 90.9123 19.1991C88.3659 16.4627 88.037 20.7204 88.037 20.7204L86.1996 20.3222C86.1996 20.3222 86.5191 16.1817 82.9243 15.4651L85.241 10.5283C85.241 10.5283 76.3714 12.2448 76.1269 11.3886C74.2033 4.65127 92.5541 -1.10397 97.6234 9.17464C105.508 25.1613 91.9037 27.9064 91.9037 27.9064Z" fill="#00211C"/>
<path d="M98.3381 68.8105L103.547 84.1099L74.0767 83.7798L78.4706 69.8007L98.3381 68.8105Z" fill="#F8C5B6"/>
<path d="M95.6769 29.9795L82.6081 34.508L70.2531 98.0831L95.6769 101.177L97.5308 91.4839L99.2981 101.177H108.105L98.6101 37.9563C98.1851 35.1266 97.1872 32.4127 95.6769 29.9795Z" fill="#FF8C42"/>
<path d="M92.0127 104.679L92.2401 94.2295L86.1188 94.0972L85.8914 104.547C84.7493 105.604 83.9954 107.246 83.9548 109.107C83.8839 112.365 86.019 115.053 88.7235 115.111C91.4281 115.17 93.6781 112.577 93.749 109.319C93.7895 107.458 93.1077 105.785 92.0127 104.679Z" fill="#F8C5B6"/>
<path d="M83.5619 52.377V103.028H94.1928L97.3346 52.8045" fill="#00211C"/>
<path d="M104.97 106.102C104.783 106.102 104.597 106.095 104.409 106.081C102.175 105.914 100.253 104.72 98.6961 102.533C92.8354 94.3018 81.0177 67.0624 81.0177 59.3163C81.0177 51.914 82.6345 34.9486 82.6905 34.6944L94.6262 28.1074C100.352 29.4473 104.338 34.674 104.104 40.5353C103.532 54.8558 105.005 87.5006 114.642 101.029L114.722 101.14L114.627 101.239C114.427 101.445 109.863 106.102 104.97 106.102Z" fill="#00211C"/>
<path d="M47.3948 87.6213C45.6327 87.6213 43.7051 87.1902 41.8094 86.7653C40.4035 86.4483 39.1631 86.3722 38.1643 86.3088C36.6566 86.2137 35.4607 86.1376 34.7991 85.2562C34.1439 84.3876 34.1439 82.9102 34.7991 79.9935C35.6706 76.1193 37.6109 69.9372 39.99 64.852C43.0563 58.2894 46.008 55.2712 48.7561 55.8862C52.4394 56.7105 53.9089 62.8356 54.4559 66.4181C55.2193 71.4145 55.1557 77.3494 54.2905 81.1855C53.1455 86.2707 50.5182 87.615 47.3947 87.615L47.3948 87.6213ZM48.0691 56.9515C46.0461 56.9515 43.5652 59.8936 41.027 65.3402C38.6859 70.3493 36.7711 76.4364 35.9187 80.2535C35.3653 82.7009 35.308 84.0388 35.7215 84.5841C36.0714 85.047 36.9811 85.1041 38.247 85.1802C39.2839 85.2436 40.5689 85.326 42.0639 85.662C47.9991 86.9872 51.7142 87.4691 53.1837 80.9446C54.755 73.9508 53.559 58.1309 48.5144 57.0022C48.3681 56.9705 48.2218 56.9515 48.0754 56.9515L48.0691 56.9515Z" fill="#E4DA18"/>
<path d="M71.4156 134.631L14.8496 134.999L6.05811 130.972L11.1791 78.9092L16.3318 79.1691L69.329 81.8576L71.4156 134.631Z" fill="#E4DA18"/>
<path opacity="0.2" d="M14.8496 134.999L6.05811 130.972L11.1791 78.9092L16.3318 79.1691L14.8496 134.999Z" fill="#343200"/>
<path d="M17.9896 71.1917L17.9084 71.1107L17.8272 71.1917C13.8765 67.2571 7.47399 67.262 3.52658 71.1997C-0.42082 75.1391 -0.500383 81.6001 3.45027 85.5346L17.9181 99.9406L32.3762 85.5168C36.3236 81.5774 36.2408 75.1165 32.2918 71.1819C28.3411 67.2474 21.9386 67.2523 17.9912 71.19L17.9896 71.1917Z" fill="#FF8C42"/>
</g>
<defs>
<clipPath id="clip0_391_2459">
<rect width="150" height="200" fill="white"/>
</clipPath>
</defs>
</svg>
