<svg width="299" height="234" viewBox="0 0 299 234" fill="none" xmlns="http://www.w3.org/2000/svg">
<g clip-path="url(#clip0_14_66)">
<path d="M184.952 233.488H53.0638V65.0076C53.0274 51.2725 57.4394 37.8845 65.6574 26.7929C65.9603 26.3858 66.2625 25.984 66.5741 25.5867C70.5491 20.4473 75.2795 15.9211 80.6091 12.1575C80.9101 11.9415 81.2124 11.7294 81.5191 11.5172C85.9788 8.4748 90.8029 5.98774 95.8817 4.11258C96.1833 3.99989 96.4904 3.88697 96.7975 3.77868C101.391 2.16274 106.152 1.05583 110.994 0.478389C111.294 0.437967 111.602 0.406337 111.911 0.374706C116.629 -0.122623 121.388 -0.122623 126.106 0.374706C126.413 0.406337 126.721 0.437963 127.025 0.478822C131.866 1.0563 136.626 2.16307 141.218 3.7787C141.525 3.887 141.832 3.9999 142.135 4.11281C147.151 5.96432 151.918 8.41427 156.33 11.408C156.637 11.6156 156.944 11.8278 157.246 12.04C160.233 14.1421 163.04 16.4841 165.636 19.0419C167.717 21.0935 169.657 23.2805 171.442 25.588C171.753 25.9841 172.055 26.3858 172.358 26.7922C180.576 37.884 184.988 51.2722 184.952 65.0076V233.488Z" fill="#81C784"/>
<path d="M174.227 158.133C178.26 158.133 181.529 154.91 181.529 150.935C181.529 146.959 178.26 143.737 174.227 143.737C170.195 143.737 166.926 146.959 166.926 150.935C166.926 154.91 170.195 158.133 174.227 158.133Z" fill="#FF8C42"/>
<path d="M205.99 228.442H200.395L197.733 207.168L205.991 207.168L205.99 228.442Z" fill="#FFB8B8"/>
<path d="M196.398 226.865H207.188V233.563H189.604C189.604 232.683 189.78 231.812 190.121 231C190.463 230.187 190.963 229.449 191.594 228.827C192.225 228.205 192.974 227.712 193.798 227.375C194.622 227.039 195.506 226.865 196.398 226.865Z" fill="#00211C"/>
<path d="M233.827 228.442H228.233L225.571 207.168L233.828 207.168L233.827 228.442Z" fill="#FFB8B8"/>
<path d="M224.236 226.865H235.026V233.563H217.442C217.442 232.683 217.618 231.812 217.959 231C218.301 230.187 218.801 229.449 219.432 228.827C220.063 228.205 220.812 227.712 221.636 227.375C222.46 227.039 223.344 226.865 224.236 226.865Z" fill="#00211C"/>
<path d="M177.923 152.361C177.52 151.776 177.253 151.112 177.139 150.414C177.025 149.716 177.068 149.003 177.264 148.323C177.46 147.644 177.805 147.015 178.275 146.481C178.744 145.947 179.327 145.521 179.981 145.233L199 93.557L208.359 98.5918L186.643 147.975C187.061 149.091 187.049 150.32 186.61 151.428C186.17 152.535 185.334 153.446 184.259 153.986C183.184 154.527 181.945 154.66 180.777 154.36C179.61 154.061 178.594 153.349 177.923 152.361Z" fill="#FFB8B8"/>
<path d="M230.97 162.071C230.348 161.719 229.812 161.238 229.399 160.66C228.987 160.082 228.708 159.423 228.582 158.727C228.456 158.031 228.486 157.317 228.671 156.634C228.855 155.952 229.189 155.317 229.649 154.775L223.757 100.111L234.408 100.59L236.856 154.36C237.728 155.183 238.264 156.292 238.362 157.477C238.46 158.663 238.113 159.843 237.387 160.793C236.661 161.744 235.607 162.399 234.425 162.634C233.242 162.87 232.012 162.669 230.97 162.071Z" fill="#FFB8B8"/>
<path d="M213.979 83.9853C220.169 83.9853 225.188 79.0382 225.188 72.9358C225.188 66.8333 220.169 61.8862 213.979 61.8862C207.789 61.8862 202.77 66.8333 202.77 72.9358C202.77 79.0382 207.789 83.9853 213.979 83.9853Z" fill="#FFB8B8"/>
<path d="M230.898 149.639H197.106L197.147 149.379C197.207 148.992 203.169 110.492 198.772 97.8969C198.331 96.6591 198.37 95.3042 198.881 94.093C199.392 92.8817 200.34 91.8997 201.542 91.336C207.827 88.4184 219.891 84.8257 230.073 93.5446C231.572 94.8487 232.742 96.4786 233.491 98.3054C234.24 100.132 234.548 102.106 234.39 104.07L230.898 149.639Z" fill="#FF8C42"/>
<path d="M203.596 116.182L188.383 113.139L195.514 96.4802C195.941 94.8667 196.999 93.4859 198.457 92.6407C199.915 91.7955 201.654 91.555 203.292 91.9718C204.929 92.3886 206.333 93.4287 207.194 94.8641C208.054 96.2994 208.303 98.0127 207.884 99.6283L203.596 116.182Z" fill="#FF8C42"/>
<path d="M223.081 121.831L222.166 101.163C221.473 97.2778 223.729 93.605 227.199 93.0046C230.67 92.4065 234.059 95.1011 234.755 99.015L238.193 118.327L223.081 121.831Z" fill="#FF8C42"/>
<path d="M229.774 147.164C235.211 167.578 235.804 193.533 234.337 221.844L227.035 220.945L213.801 166.959L206.499 221.844L198.285 221.394C195.831 191.689 193.441 166.187 197.372 149.414L229.774 147.164Z" fill="#00211C"/>
<path d="M221.364 81.4751C219.273 83.6708 215.39 82.4921 215.117 79.4924C215.096 79.2595 215.098 79.0251 215.122 78.7925C215.263 77.4637 216.041 76.2574 215.855 74.8544C215.813 74.5052 215.681 74.1725 215.472 73.8877C213.805 71.6881 209.894 74.8715 208.321 72.8803C207.357 71.6593 208.49 69.7369 207.75 68.3722C206.774 66.5711 203.881 67.4596 202.067 66.4732C200.049 65.3757 200.169 62.323 201.498 60.4661C203.118 58.2016 205.959 56.9932 208.765 56.8191C211.57 56.6449 214.357 57.3926 216.976 58.3988C219.952 59.5421 222.903 61.1222 224.734 63.7018C226.961 66.8389 227.176 71.0564 226.062 74.7246C225.384 76.9561 223.072 79.682 221.364 81.4751Z" fill="#00211C"/>
<path d="M298.615 234H0.272417C0.14505 234 0.0230335 233.947 -0.066899 233.853C-0.156831 233.759 -0.207336 233.632 -0.207336 233.5C-0.207336 233.368 -0.156831 233.241 -0.066899 233.147C0.0230335 233.053 0.14505 233 0.272417 233H298.615C298.742 233 298.864 233.053 298.954 233.147C299.044 233.241 299.094 233.368 299.094 233.5C299.094 233.632 299.044 233.759 298.954 233.853C298.864 233.947 298.742 234 298.615 234Z" fill="#0A3D21"/>
<path d="M148.671 184.676H89.3445C88.5631 184.68 87.812 184.378 87.2559 183.837C86.6998 183.296 86.3842 182.56 86.3781 181.79V51.2482C86.3842 50.478 86.6998 49.7416 87.2559 49.2005C87.812 48.6595 88.5631 48.358 89.3445 48.3621H148.671C149.453 48.358 150.204 48.6595 150.76 49.2005C151.316 49.7416 151.631 50.478 151.638 51.2482V181.79C151.631 182.56 151.316 183.296 150.76 183.837C150.204 184.378 149.453 184.68 148.671 184.676Z" fill="white"/>
<path d="M151.637 90.6012H86.3781V91.501H151.637V90.6012Z" fill="#A5A5A5"/>
<path d="M151.866 141.937H86.6063V142.837H151.866V141.937Z" fill="#A5A5A5"/>
<path d="M107.827 48.3621H106.914V185.126H107.827V48.3621Z" fill="#A5A5A5"/>
<path d="M130.645 48.3621H129.732V185.126H130.645V48.3621Z" fill="#A5A5A5"/>
</g>
<defs>
<clipPath id="clip0_14_66">
<rect width="299" height="234" fill="white"/>
</clipPath>
</defs>
</svg>
