<svg width="583" height="500" viewBox="0 0 583 500" fill="none" xmlns="http://www.w3.org/2000/svg">
<path fill-rule="evenodd" clip-rule="evenodd" d="M548.427 13.1386C547.642 7.2146 545.808 4.08739 541.639 0.289956C534.966 -0.627325 529.315 0.708499 523.062 3.21492L519.854 4.63961L516.186 6.26128L512.238 8.02267C509.411 9.27501 506.585 10.5276 503.759 11.7805L503.425 11.9293C499.264 13.7804 495.103 15.6316 490.94 17.4767C482.702 21.1242 474.466 24.7784 466.233 28.4387L461.778 30.4195C433.938 42.7927 406.125 55.2355 378.322 67.7074C356.421 77.532 334.519 87.3512 312.548 96.9822C297.171 103.716 281.824 110.524 266.496 117.389C252.687 123.574 238.868 129.726 225.017 135.796C201.511 146.09 178.083 156.585 154.681 167.163C153.363 167.759 152.045 168.356 150.727 168.952C139.227 174.156 127.73 179.36 116.106 184.226C108.561 187.376 101.094 190.698 93.6392 194.095C85.6466 197.738 77.6407 201.336 69.5959 204.838L66.1322 206.342L65.9599 206.417C61.397 208.404 56.834 210.39 52.2694 212.372C49.2373 213.681 46.1525 214.96 43.0478 216.249C30.6228 221.404 17.8773 226.693 6.89801 234.488C2.78359 239.384 0.84663 241.727 0 248.378C0.769943 253.942 1.34936 255.107 5.34352 258.421C13.4781 260.335 21.5226 259.275 29.3996 256.557L35.1883 254.074C38.5569 252.642 41.9218 251.203 45.2792 249.739L48.869 248.164C59.0473 243.703 69.2146 239.211 79.3756 234.702C83.3228 232.933 87.2702 231.165 91.2268 229.422L94.9812 227.771C102.692 224.274 108.746 221.797 117.266 222.522L118.821 231.069C109.411 234.343 100.34 238.109 91.271 242.391L86.5651 244.638C80.6694 247.386 74.8093 250.151 69.0772 253.292L68.8861 253.434C63.3109 257.548 61.7046 258.734 59.6532 265.9C59.7745 273.636 61.2016 276.708 65.9682 282.354C73.3238 285.011 78.0757 283.495 84.956 280.437L88.6296 278.714C92.7218 276.869 96.8105 275.018 100.888 273.135C103.784 271.798 106.683 270.471 109.585 269.154C122.632 263.261 135.649 257.291 148.646 251.269C153.603 248.97 158.563 246.678 163.526 244.395C166.94 242.825 170.351 241.247 173.752 239.641C175.876 238.637 178.003 237.641 180.134 236.655L183.107 235.283C188.929 232.55 193.079 231.091 199.425 230.699C202.216 230.557 203.342 230.5 204.172 230.969C204.733 231.286 205.158 231.844 205.871 232.779C206.063 235.272 206.16 236.536 206.163 237.801C206.166 239.1 206.068 240.4 205.871 243.036C204.321 244.958 203.609 245.841 202.723 246.484C201.97 247.03 201.092 247.403 199.468 248.092L195.415 249.793C192.362 251.11 189.305 252.419 186.246 253.72C175.257 258.314 164.646 262.866 156.128 272.097C155.09 274.949 154.607 276.279 154.441 277.647C154.296 278.84 154.393 280.063 154.574 282.354C155.546 284.289 156.055 285.302 156.774 286.133C157.564 287.045 158.606 287.738 160.792 289.191C169.419 291.632 176.951 289.246 184.999 285.529C187.229 284.469 189.463 283.421 191.701 282.383L195.31 280.71C205.253 276.054 215.236 271.505 225.227 266.975C227.746 265.835 230.265 264.693 232.783 263.549C236.641 261.774 240.499 259.999 244.367 258.251L248.018 256.605C248.516 256.373 249.003 256.144 249.481 255.918C255.333 253.159 259.959 250.977 266.496 253.292V261.84C254.836 266.352 243.469 271.267 233.658 279.683C232.229 281.831 231.5 282.925 231.06 284.126C230.603 285.373 230.457 286.735 230.16 289.512C231.128 297.497 234.46 301.19 240.07 306.286C243.085 306.623 244.515 306.783 245.942 306.766C247.227 306.75 248.511 306.59 250.951 306.286C253.832 304.807 255.27 304.068 256.727 303.368C258.179 302.67 259.649 302.01 262.584 300.693L266.15 299.088C270.033 297.336 273.916 295.585 277.8 293.836C280.574 292.586 283.349 291.336 286.123 290.086C313.03 277.958 339.95 265.869 366.898 253.853L370.537 252.231C376.732 249.468 382.928 246.706 389.125 243.949L390.398 243.383C401.508 238.443 412.616 233.503 423.684 228.451C425.658 227.55 427.632 226.65 429.607 225.752C432.364 224.498 435.121 223.243 437.878 221.988C441.883 220.134 444.265 218.984 446.207 218.047C449.455 216.478 451.471 215.505 457.794 212.83C457.794 212.83 462.743 210.356 465.453 212.937C465.451 212.909 465.45 212.882 465.45 212.854L468.559 211.145L471.668 209.435L476.332 206.871C477.552 206.336 478.705 205.79 479.834 205.256C482.738 203.882 485.479 202.584 488.767 201.743C494.378 199.793 496.812 198.948 499.314 198.43C501.231 198.033 503.188 197.829 506.644 197.469C507.679 197.479 508.741 197.469 509.82 197.459C515.95 197.403 522.601 197.341 527.629 200.888C531.12 203.351 532.505 205.382 532.529 209.368C533.338 200.592 534.217 191.842 535.294 183.097C535.489 181.534 535.688 179.963 535.888 178.387C538.337 159.049 540.905 138.781 537.929 119.473C536.177 114.072 533.574 109.339 529.203 106.277C521.353 105.708 515.553 106.188 508.135 109.446L505.127 110.852C501.74 112.363 498.355 113.88 494.982 115.428C492.575 116.534 490.165 117.63 487.752 118.718C482.799 120.941 477.848 123.167 472.903 125.414C467.465 127.892 462.025 130.368 456.571 132.804C441.126 139.676 425.701 146.601 410.3 153.59L406.758 155.198L404.322 156.303C399.295 158.583 394.269 160.863 389.245 163.151C378.66 167.973 368.075 172.762 357.373 177.261C348.041 181.172 338.772 185.241 329.519 189.37C326.336 190.793 323.153 192.215 319.969 193.632L319.588 193.801C310.445 197.868 301.305 201.933 292.265 206.27L287.421 208.646C284.524 210.06 281.63 211.48 278.738 212.906C278.363 213.099 277.993 213.29 277.629 213.478C269.922 217.461 264.461 220.284 255.615 217.393C255.023 213.417 254.507 209.426 254.06 205.427C259.939 201.541 262.896 199.586 266.048 198.024C269.237 196.442 272.625 195.263 279.443 192.889C293.487 186.732 307.506 180.511 321.516 174.26C324.01 173.148 326.503 172.036 328.997 170.924C344.376 164.065 359.75 157.192 375.115 150.297C386.863 145.024 398.619 139.776 410.383 134.548L415.247 132.387C423.465 128.735 431.684 125.084 439.904 121.436C441.733 120.625 443.563 119.814 445.392 119.003C457.168 113.783 468.943 108.563 480.656 103.172C488.635 99.491 496.669 95.9792 504.72 92.4948C506.29 91.8199 507.881 91.156 509.48 90.4885C518.688 86.6445 528.179 82.6824 535.743 75.8074L538.239 72.6222C547.077 61.8402 548.467 48.3322 548.57 34.3459L548.537 28.9237C548.627 23.6415 548.641 18.4166 548.427 13.1386ZM532.033 214.722C531.801 216.338 531.516 218.354 531.516 219.128C531.355 221.79 531.068 224.383 530.783 226.97C530.425 230.213 530.068 233.445 529.961 236.787C529.935 237.404 529.904 238.003 529.869 238.588C530.097 236.236 530.304 233.86 530.51 231.464C530.861 227.362 531.237 223.263 531.618 219.164C531.757 217.683 531.895 216.203 532.033 214.722ZM528.535 249.551C528.336 250.697 528.127 251.844 527.913 253.021C527.789 253.698 527.663 254.386 527.537 255.089C527.916 253.268 528.244 251.42 528.535 249.551ZM525.323 263.508C525.298 263.564 525.273 263.62 525.248 263.677C524.559 265.22 523.867 266.771 523.743 267.558C521.412 272.686 521.023 273.541 517.525 278.669C515.845 281.133 512.903 284.041 511.391 285.473C511.921 285.059 512.449 284.635 512.973 284.203C519.07 278.038 522.853 271.058 525.323 263.508ZM509.282 287.068C507.543 288.162 505.09 289.781 505.09 289.781C505.09 289.781 504.123 290.461 502.849 291.392C505.041 290.028 507.183 288.604 509.282 287.068ZM497.398 294.637C494.993 295.796 493.353 296.662 488.767 299.183C485.659 300.892 466.908 309.44 466.908 309.44C466.908 309.44 464.673 310.295 462.244 311.439C446.905 318.296 431.564 325.149 416.223 332L408.809 335.311C400.228 339.144 391.646 342.975 383.063 346.804L379.364 348.455C363.014 355.748 346.654 363.01 330.245 370.142C322.525 373.515 314.85 376.975 307.221 380.589C303.353 382.422 299.478 384.238 295.602 386.054L294.854 386.404C292.866 387.344 290.881 388.294 288.901 389.256C286.144 390.594 283.373 391.894 280.601 393.194L275.8 395.495C275.02 395.728 274.273 395.92 273.549 396.075C274.309 395.916 275.095 395.716 275.916 395.471L280.717 393.169L286.16 390.618C289.098 389.191 292.036 387.767 294.987 386.373L295.607 386.082C299.543 384.238 303.479 382.395 307.408 380.534C314.752 377.054 322.138 373.711 329.57 370.466C336.421 367.49 341.062 365.473 345.696 363.443C355.431 359.18 365.138 354.856 395.234 341.45L400.429 339.136L404.773 337.2L409.533 335.08C418.588 331.046 427.646 327.02 436.721 323.04C442.031 320.715 447.34 318.386 452.647 316.05C455.107 314.967 457.568 313.884 460.029 312.804C472.038 307.594 483.922 302.34 495.395 295.802L497.398 294.637ZM317.178 332.349C316.197 332.838 315.171 333.353 314.089 333.9C308.292 336.718 303.316 338.937 298.047 340.06C303.359 338.945 308.366 336.714 314.205 333.875C315.198 333.374 316.188 332.864 317.178 332.349ZM450.076 235.725C458.409 231 465.508 225.359 466.642 219.6C464.805 225.574 458.203 231.051 450.076 235.725Z" fill="#E7DC12"/>
<path d="M506.644 208.43C513.559 208.497 521.717 207.678 527.629 211.849C532.014 214.942 533.076 217.355 532.293 223.815C532.139 225.081 531.516 228.944 531.516 230.088C531.153 236.088 530.153 241.74 529.961 247.748C529.575 256.937 528.068 262.279 526.728 270.826C526.487 272.36 523.989 276.954 523.743 278.519C521.412 283.647 521.023 284.502 517.525 289.63C515.194 293.049 510.433 297.323 510.433 297.323C508.976 298.178 505.089 300.742 505.089 300.742C505.089 300.742 502.661 302.451 500.426 304.161C495.787 306.351 494.985 306.725 488.767 310.144C485.658 311.853 466.908 320.401 466.908 320.401C466.908 320.401 464.673 321.256 462.244 322.4C446.905 329.257 431.564 336.11 416.223 342.961C413.752 344.065 411.28 345.169 408.809 346.272C400.228 350.105 391.646 353.936 383.063 357.765C381.842 358.31 380.621 358.854 379.364 359.416C363.014 366.709 346.653 373.971 330.245 381.103C322.525 384.476 314.85 387.936 307.221 391.55C303.104 393.501 298.979 395.432 294.854 397.365C292.866 398.305 290.881 399.255 288.901 400.217C286.144 401.555 283.373 402.855 280.601 404.155C279.016 404.914 277.432 405.674 275.8 406.456C269.992 408.187 265.988 407.679 260.162 406.165C255.679 401.74 254.178 398.993 253.069 392.489C254.254 385.539 256.907 383.426 261.716 378.813C266.509 375.992 266.509 375.992 271.857 373.538C272.818 373.089 273.78 372.639 274.771 372.177C277.861 370.738 280.961 369.327 284.062 367.915C287.25 366.436 290.436 364.95 293.621 363.463C295.702 362.492 297.784 361.523 299.866 360.557C309.022 356.305 318.022 351.767 326.986 347.054C333.148 343.855 339.41 340.921 345.695 338.026C349.29 336.243 346.482 331.316 343.424 332.367C330.988 336.641 325.825 338.936 314.089 344.86C303.884 349.821 296.224 352.928 285.033 351.461C281.145 348.254 279.407 345.924 277.261 341.204C276.678 335.542 276.678 335.542 277.261 329.238C282.808 321.724 289 318.216 297.032 314.774C298.21 314.249 299.388 313.724 300.601 313.183C304.472 311.463 308.354 309.773 312.237 308.083C314.967 306.876 317.697 305.666 320.426 304.455C326.061 301.957 331.699 299.471 337.342 296.995C345.105 293.587 352.856 290.145 360.602 286.688C361.794 286.156 362.987 285.624 364.216 285.076C370.138 282.434 376.058 279.787 381.977 277.136C384.328 276.084 386.68 275.032 389.032 273.981C390.188 273.463 391.345 272.946 392.537 272.413C399.805 269.172 407.095 265.996 414.402 262.862C419.284 260.762 424.155 258.632 429.025 256.499C431.316 255.504 433.611 254.522 435.912 253.555C448.949 248.073 465.45 239.201 466.721 230.088C467.782 227.234 465.45 225.174 465.45 223.815C465.45 223.815 467.005 222.961 468.559 222.106C470.114 221.251 470.114 221.251 471.668 220.396C474 219.114 474.777 218.687 476.332 217.832C480.688 215.921 484.2 213.872 488.767 212.704C498.677 209.261 498.677 209.261 506.644 208.43Z" fill="#E95B00"/>
<path fill-rule="evenodd" clip-rule="evenodd" d="M581.629 354.802C577.004 340.925 570.462 329.194 558.629 320.299C534.587 305.766 508.105 308.828 488.126 327.898C478.218 339.18 474.022 350.44 474.021 365.276C474.399 381.275 479.413 394.116 490.976 405.357C505.094 416.647 519.334 420.484 537.272 418.88C551.695 416.088 562.615 408.202 571.907 397.084C581.081 384.004 583.11 370.529 581.629 354.802ZM542.196 359.73C538.924 354.923 536.53 352.193 530.799 350.668C523.777 350.082 521.362 351.077 515.807 355.725C514.152 358.662 513.358 360.071 512.962 361.585C512.597 362.983 512.571 364.47 512.522 367.329C514.452 373.46 515.429 375.978 520.839 379.446C529.004 380.613 532.091 380.746 538.91 376.057C543.067 369.953 543.491 366.978 542.196 359.73Z" fill="#E95B00"/>
<path fill-rule="evenodd" clip-rule="evenodd" d="M398.311 436.866C396.757 423.305 389.572 411.957 378.986 403.448C357.082 388.578 330.953 387.494 309.499 403.962C299.642 413.034 292.244 424.527 290.726 437.952C290.347 455.16 292.612 469.991 304.565 482.931C316.824 494.635 328.912 499.464 345.784 500C362.547 499.505 374.336 493.573 386.182 482.005C396.56 468.519 400.044 453.558 398.311 436.866ZM355.378 435.539C354.343 434.495 353.109 433.647 350.614 431.93C344.198 430.482 339.083 430.954 333.344 434.398C330.499 439.143 329.931 442.907 330.261 448.427C331.308 453.939 333.1 456.413 337.456 459.899C345.661 461.201 348.691 461.221 355.548 456.505C359.708 450.393 360.133 447.414 358.837 440.156C357.211 437.768 356.389 436.56 355.378 435.539Z" fill="#E7DC12"/>
</svg>
