<svg width="276" height="264" viewBox="0 0 276 264" fill="none" xmlns="http://www.w3.org/2000/svg">
<g clip-path="url(#clip0_14_169)">
<path d="M167.947 0H89.0242C76.7494 0 66.7987 10.4468 66.7987 23.3335V212.67C66.7987 225.557 76.7494 236.004 89.0242 236.004H167.947C180.221 236.004 190.172 225.557 190.172 212.67V23.3335C190.172 10.4468 180.221 0 167.947 0Z" fill="#00211C"/>
<path d="M188.461 23.235V212.57C188.455 218.178 186.331 223.553 182.554 227.518C178.777 231.483 173.657 233.713 168.316 233.719H89.3952C84.0544 233.713 78.9341 231.483 75.1576 227.518C71.381 223.553 69.2567 218.178 69.2505 212.57V23.235C69.2567 17.628 71.381 12.2524 75.1576 8.28761C78.9341 4.32282 84.0544 2.09255 89.3952 2.08606H99.7154V5.82874C99.7155 7.52313 100.357 9.14809 101.498 10.3462C102.639 11.5443 104.187 12.2174 105.801 12.2175C119.87 12.2184 138.37 12.2175 151.911 12.2175C153.525 12.2174 155.072 11.5443 156.214 10.3462C157.355 9.14809 157.996 7.52313 157.996 5.82874V2.08606H168.316C173.657 2.09255 178.777 4.32282 182.554 8.28761C186.33 12.2524 188.455 17.628 188.461 23.235Z" fill="white"/>
<path d="M188.461 23.235V212.57C188.455 218.178 186.331 223.553 182.554 227.518C178.777 231.483 173.657 233.713 168.316 233.719H89.3952C84.0544 233.713 78.9341 231.483 75.1576 227.518C71.381 223.553 69.2567 218.178 69.2505 212.57V23.235C69.2567 17.628 71.381 12.2524 75.1576 8.28761C78.9341 4.32282 84.0544 2.09255 89.3952 2.08606H99.7154V5.82874C99.7155 7.52313 100.357 9.14809 101.498 10.3462C102.639 11.5443 104.187 12.2174 105.801 12.2175C119.87 12.2184 138.37 12.2175 151.911 12.2175C153.525 12.2174 155.072 11.5443 156.214 10.3462C157.355 9.14809 157.996 7.52313 157.996 5.82874V2.08606H168.316C173.657 2.09255 178.777 4.32282 182.554 8.28761C186.33 12.2524 188.455 17.628 188.461 23.235Z" fill="white" fill-opacity="0.8"/>
<path opacity="0.1" d="M188.211 23.149V124.281C188.211 135.942 69 135.942 69 124.281V23.149C69.0062 17.5419 71.1305 12.1663 74.9071 8.20156C78.6836 4.23677 83.8039 2.00649 89.1447 2H99.4649V5.74269C99.465 7.43707 100.106 9.06203 101.247 10.2601C102.389 11.4582 103.936 12.1314 105.55 12.1315C118.37 12.1322 133.87 12.1315 151.66 12.1315C153.274 12.1314 154.822 11.4582 155.963 10.2601C157.104 9.06202 157.746 7.43707 157.746 5.74269V2H168.066C173.407 2.00649 178.527 4.23677 182.303 8.20156C186.08 12.1663 188.204 17.5419 188.211 23.149Z" fill="#0A3D21"/>
<path d="M66.2311 47.8762C65.8297 47.8757 65.445 47.7081 65.1612 47.4102C64.8774 47.1122 64.7177 46.7083 64.7173 46.2869V43.1084C64.7173 42.6869 64.8768 42.2827 65.1607 41.9846C65.4446 41.6866 65.8296 41.5192 66.2311 41.5192C66.6326 41.5192 67.0176 41.6866 67.3015 41.9846C67.5854 42.2827 67.7449 42.6869 67.7449 43.1084V46.2869C67.7444 46.7083 67.5848 47.1122 67.301 47.4102C67.0172 47.7081 66.6324 47.8757 66.2311 47.8762Z" fill="#00211C"/>
<path d="M66.2311 64.1745C65.8297 64.174 65.445 64.0064 65.1612 63.7085C64.8774 63.4105 64.7177 63.0066 64.7173 62.5852V53.8358C64.7173 53.4143 64.8768 53.0101 65.1607 52.7121C65.4446 52.414 65.8296 52.2466 66.2311 52.2466C66.6326 52.2466 67.0176 52.414 67.3015 52.7121C67.5854 53.0101 67.7449 53.4143 67.7449 53.8358V62.5852C67.7444 63.0066 67.5848 63.4105 67.301 63.7085C67.0172 64.0064 66.6324 64.174 66.2311 64.1745Z" fill="#00211C"/>
<path d="M66.2311 77.2773C65.8297 77.2768 65.445 77.1092 65.1612 76.8113C64.8774 76.5133 64.7177 76.1094 64.7173 75.688V66.9386C64.7173 66.5171 64.8768 66.1129 65.1607 65.8148C65.4446 65.5168 65.8296 65.3494 66.2311 65.3494C66.6326 65.3494 67.0176 65.5168 67.3015 65.8148C67.5854 66.1129 67.7449 66.5171 67.7449 66.9386V75.688C67.7444 76.1094 67.5848 76.5133 67.301 76.8113C67.0172 77.1092 66.6324 77.2768 66.2311 77.2773Z" fill="#00211C"/>
<path d="M190.362 45.6003C189.961 45.6 189.576 45.7668 189.293 46.064C189.009 46.3613 188.849 46.7647 188.848 47.1856V68.5372C188.848 68.9587 189.008 69.3629 189.292 69.661C189.575 69.959 189.96 70.1265 190.362 70.1265C190.763 70.1265 191.148 69.959 191.432 69.661C191.716 69.3629 191.876 68.9587 191.876 68.5372V47.1856C191.874 46.7649 191.714 46.3619 191.431 46.0648C191.147 45.7677 190.763 45.6007 190.362 45.6003Z" fill="#00211C"/>
<path d="M139.571 34.1776H136.165C134.86 34.1791 133.61 34.7238 132.687 35.6921C131.765 36.6604 131.246 37.9733 131.245 39.3427V43.3158H125.19C123.885 43.3173 122.635 43.862 121.712 44.8303C120.79 45.7986 120.271 47.1115 120.27 48.4809V56.4271C120.271 57.7965 120.79 59.1094 121.712 60.0777C122.635 61.046 123.885 61.5907 125.19 61.5922H132.759C134.063 61.5907 135.313 61.046 136.236 60.0777C137.158 59.1094 137.677 57.7965 137.678 56.4271V48.4809C137.677 47.1115 137.158 45.7986 136.236 44.8303C135.313 43.862 134.063 43.3173 132.759 43.3158H132.002V39.3427C132.003 38.184 132.442 37.0731 133.222 36.2538C134.003 35.4344 135.061 34.9735 136.165 34.9722H139.571C140.674 34.9735 141.732 35.4344 142.513 36.2538C143.293 37.0731 143.732 38.184 143.733 39.3427V43.7131H144.49V39.3427C144.489 37.9733 143.97 36.6604 143.048 35.6921C142.125 34.7238 140.875 34.1791 139.571 34.1776ZM136.921 48.4809V56.4271C136.92 57.5858 136.481 58.6967 135.701 59.5161C134.92 60.3354 133.862 60.7963 132.759 60.7976H125.19C124.086 60.7963 123.028 60.3354 122.247 59.5161C121.467 58.6967 121.028 57.5858 121.027 56.4271V48.4809C121.028 47.3222 121.467 46.2113 122.247 45.392C123.028 44.5726 124.086 44.1117 125.19 44.1104C128.773 46.2993 130.748 45.1672 132.759 44.1104C133.862 44.1117 134.92 44.5726 135.701 45.392C136.481 46.2113 136.92 47.3222 136.921 48.4809Z" fill="#4CAF50"/>
<path d="M128.974 56.0298C129.648 56.0298 130.306 55.8201 130.866 55.4272C131.427 55.0343 131.863 54.4758 132.121 53.8224C132.379 53.169 132.446 52.45 132.315 51.7564C132.183 51.0627 131.859 50.4256 131.383 49.9255C130.906 49.4254 130.299 49.0849 129.639 48.9469C128.978 48.8089 128.293 48.8797 127.671 49.1504C127.048 49.421 126.516 49.8793 126.142 50.4674C125.768 51.0554 125.568 51.7468 125.568 52.454C125.569 53.402 125.928 54.3109 126.567 54.9813C127.205 55.6516 128.071 56.0287 128.974 56.0298ZM128.974 51.6594C130.435 51.6594 131.623 50.9204 131.623 52.454C131.623 53.1916 131.344 53.899 130.847 54.4206C130.351 54.9422 129.677 55.2352 128.974 55.2352C128.272 55.2352 127.598 54.9422 127.101 54.4206C126.604 53.899 126.325 53.1916 126.325 52.454C126.325 50.9204 127.513 51.6594 128.974 51.6594Z" fill="#4CAF50"/>
<path d="M128.974 53.646C129.601 53.646 130.109 53.1123 130.109 52.454C130.109 51.7957 129.601 51.2621 128.974 51.2621C128.347 51.2621 127.839 51.7957 127.839 52.454C127.839 53.1123 128.347 53.646 128.974 53.646Z" fill="#4CAF50"/>
<path opacity="0.1" d="M68.8013 122.402V124.388C68.8013 136.05 188.012 136.05 188.012 124.388V122.402C188.012 134.063 68.8013 134.063 68.8013 122.402Z" fill="#0A3D21"/>
<path d="M174.095 150.827C174.836 150.669 175.488 150.213 175.913 149.558C176.339 148.902 176.504 148.098 176.373 147.317C176.344 147.158 176.303 147.003 176.25 146.851L184.003 140.024L182.088 134.675L172.429 145.233C171.849 145.514 171.374 145.988 171.078 146.583C170.782 147.177 170.681 147.857 170.792 148.518C170.927 149.276 171.342 149.946 171.948 150.382C172.553 150.818 173.299 150.984 174.021 150.843C174.046 150.838 174.071 150.833 174.095 150.827Z" fill="#FFB8B8"/>
<path d="M177.746 110.544L174.671 113.118C174.671 113.118 170.997 120.132 173.631 121.586C176.265 123.041 184.453 127.879 184.453 127.879C184.453 127.879 181.069 131.416 180.67 133.134C180.271 134.852 181.154 136.378 179.752 136.019C178.349 135.66 178.31 136.829 177.967 138.302C177.625 139.774 175.344 141.13 175.344 141.13L179.704 144.507C179.704 144.507 181.722 145.255 181.887 143.478C182.053 141.7 181.593 141.951 182.996 142.31C184.398 142.669 185.58 140.365 186.327 138.216C187.074 136.067 194.696 126.066 194.696 126.066L186.722 116.749C184.287 113.905 181.196 111.768 177.746 110.544Z" fill="#FF8C42"/>
<path d="M177.046 256.534L173.871 256.506L172.466 243.35L177.151 243.392L177.046 256.534Z" fill="#FFB8B8"/>
<path d="M166.877 261.834C166.874 262.229 167.021 262.609 167.285 262.891C167.548 263.173 167.908 263.333 168.284 263.337L174.596 263.392L175.701 261.041L176.107 263.404L178.489 263.427L177.887 254.997L177.059 254.94L173.679 254.695L172.588 254.618L172.569 257.003L167.499 260.614C167.309 260.749 167.153 260.931 167.045 261.144C166.936 261.356 166.879 261.593 166.877 261.834Z" fill="#00211C"/>
<path d="M147.899 256.534L144.725 256.506L143.319 243.35L148.005 243.392L147.899 256.534Z" fill="#FFB8B8"/>
<path d="M137.731 261.834C137.728 262.229 137.874 262.609 138.138 262.891C138.402 263.173 138.762 263.333 139.138 263.337L145.45 263.392L146.555 261.041L146.961 263.404L149.342 263.427L148.741 254.997L147.912 254.94L144.533 254.695L143.442 254.618L143.423 257.003L138.353 260.614C138.163 260.749 138.007 260.931 137.899 261.144C137.79 261.356 137.733 261.593 137.731 261.834Z" fill="#00211C"/>
<path d="M156.113 145.133C156.113 145.133 150.017 148.286 151.606 150.184C153.195 152.081 151.889 153.154 149.908 154.937C147.927 156.719 143.94 177.599 143.94 177.599L138.776 209.944C138.776 209.944 140.146 238.187 141.066 239.193C141.985 240.199 143.4 238.713 141.985 240.199C140.57 241.684 139.438 240.496 140.57 241.684C141.702 242.872 141.985 246.14 141.985 246.14L149.318 245.492C149.318 245.492 154.091 223.783 150.868 214.166L163.512 178.986L167.335 212.931C167.335 212.931 169.433 240.496 170.848 241.387C172.263 242.278 173.282 242.338 172.065 243.497C170.848 244.655 170.848 242.872 170.848 244.655V247.611L177.693 248.598C177.693 248.598 180.873 222.172 179.398 209.944L183.865 168.9L180.385 150.403L176.791 145.43L156.113 145.133Z" fill="#00211C"/>
<path d="M126.697 135.129C127.307 135.597 128.067 135.796 128.815 135.685C129.563 135.573 130.24 135.16 130.702 134.532C130.794 134.403 130.876 134.266 130.947 134.123L140.976 135.541L143.452 130.452L129.513 130.068C128.924 129.807 128.27 129.758 127.652 129.929C127.035 130.099 126.488 130.48 126.098 131.011C125.878 131.315 125.718 131.662 125.627 132.031C125.535 132.401 125.513 132.785 125.563 133.163C125.613 133.541 125.734 133.905 125.918 134.235C126.102 134.564 126.346 134.852 126.635 135.082C126.656 135.098 126.676 135.114 126.697 135.129Z" fill="#FFB8B8"/>
<path d="M157.516 110.828L153.633 110.176C153.633 110.176 148.972 112.848 149.722 115.872C150.472 118.896 149.83 127.71 149.83 127.71C149.83 127.71 145.06 127.466 143.582 128.313C142.103 129.161 141.624 130.875 140.932 129.544C140.24 128.214 140.97 127.508 139.703 128.234C138.436 128.961 134.365 129.567 134.365 129.567L132.728 135.417C132.728 135.417 135.002 138.699 136.365 137.63C137.728 136.561 137.996 134.969 138.688 136.299C139.38 137.629 139.573 140.109 141.589 139.241C143.605 138.373 158.005 134.436 158.005 134.436L159.746 116.17L157.516 110.828Z" fill="#FF8C42"/>
<path d="M153.726 149.643C153.726 149.643 150.984 145.049 151.506 144.375C152.028 143.702 152.682 144.866 151.506 143.69C150.331 142.513 156.925 134.662 157.358 133.506C157.791 132.349 150.757 112.157 150.757 112.157L156.748 108.37L161.811 100.892L170.865 102.412L174.051 109.192L178.551 110.859L178.929 111.256V123.573C178.929 123.573 180.932 134.086 176.526 137.706C176.526 137.706 178.628 142.513 178.062 143.405C177.496 144.296 187.672 156.007 179.686 157.345C170.939 158.81 152.28 149.124 153.726 149.643Z" fill="#FF8C42"/>
<path d="M-0.0306339 263.349C-0.0311378 263.415 0.00174995 263.48 0.0662237 263.541C0.130697 263.601 0.225491 263.657 0.345052 263.703C0.464614 263.75 0.60659 263.786 0.762899 263.811C0.919208 263.837 1.08675 263.849 1.25583 263.849H275.063C275.405 263.849 275.732 263.796 275.973 263.703C276.214 263.609 276.35 263.482 276.35 263.349C276.35 263.217 276.214 263.089 275.973 262.996C275.732 262.902 275.405 262.849 275.063 262.849H1.25583C1.08675 262.849 0.919206 262.862 0.762899 262.887C0.606592 262.912 0.464613 262.949 0.345052 262.995C0.225492 263.042 0.130765 263.097 0.0662896 263.158C0.0018144 263.218 -0.0311335 263.283 -0.0306339 263.349Z" fill="#0A3D21"/>
<path d="M167.672 102.764C172.764 102.764 176.892 98.4298 176.892 93.0838C176.892 87.7377 172.764 83.4039 167.672 83.4039C162.579 83.4039 158.451 87.7377 158.451 93.0838C158.451 98.4298 162.579 102.764 167.672 102.764Z" fill="#FFB8B8"/>
<path d="M174.796 85.9275C174.701 85.0564 174.133 83.9797 173.737 83.2075C173.341 82.4353 172.577 81.8046 171.744 81.8584C171.403 81.8999 171.077 82.0272 170.794 82.2295C170.51 82.4319 170.277 82.7032 170.115 83.0205C169.797 83.6592 169.624 84.3664 169.608 85.087C169.521 86.6948 169.777 88.3028 170.357 89.7937C170.937 91.2846 171.826 92.6208 172.961 93.705C173.607 94.3134 174.385 94.8549 175.252 94.8755C175.647 94.8656 176.035 94.7731 176.394 94.6033C176.754 94.4336 177.077 94.19 177.346 93.887C178.751 92.4101 178.963 89.9821 178.213 88.0493C177.463 86.1166 177.128 85.3645 175.413 84.3087" fill="#00211C"/>
<path d="M161.844 99.8494C161.998 100.711 160.579 104.806 161.033 105.544C161.033 105.544 165.727 107.256 167.522 107.379C169.714 107.528 171.478 106.584 173.529 105.162C173.566 104.391 173.778 103.641 174.149 102.974C174.118 103.491 174.218 104.007 174.438 104.47C182.119 102.466 180.239 95.23 175.6 91.8397L172.516 84.3931C173.441 84.7169 170.648 79.7145 167.703 83.3374C164.018 79.3971 156.879 85.0695 155.984 90.1365C156.845 88.9928 157.293 89.1276 157.514 89.9163C157.768 89.253 158.17 88.6633 158.686 88.1971C158.429 88.7298 158.298 89.3194 158.303 89.9163C164.117 90.2951 163.035 94.4124 158.27 100.58C160.032 99.4286 158.843 104.391 159.784 105.577C159.83 104.748 161.677 100.656 161.844 99.8494Z" fill="#00211C"/>
<path d="M170.089 84.8432C171.971 84.0231 173.976 83.5566 176.012 83.4651C177.627 83.3932 179.554 83.7713 180.21 85.322C180.609 86.2627 180.396 87.3654 180.032 88.3212C179.668 89.277 177.965 91.2065 178.946 91.1854C181.408 91.1326 182.459 93.4443 181.21 97.0365C180.486 99.1198 184.981 99.0396 187.076 99.3185C185.502 99.9318 183.903 100.551 182.23 100.698C180.556 100.845 178.769 100.463 177.519 99.2852C176.167 98.0103 175.647 96.0304 175.417 94.1377C175.187 92.245 175.176 90.2958 174.564 88.4989C173.953 86.702 172.55 85.0286 170.738 84.8692" fill="#00211C"/>
</g>
<defs>
<clipPath id="clip0_14_169">
<rect width="276" height="264" fill="white"/>
</clipPath>
</defs>
</svg>
